<?xml version="1.0" encoding="UTF-8"?>
<svg xmlns="http://www.w3.org/2000/svg" viewBox="0 0 24 24">
  <!-- Monochrome shape for CSS mask (black = visible) -->
  <path fill="#000" fill-rule="evenodd" clip-rule="evenodd" d="M7.03094 13.9399C6.73794 14.2329 6.26294 14.2329 5.96994 13.9399C5.67694 13.6469 5.67694 13.1719 5.96994 12.8789L11.85 6.99997H12.65L18.531 12.8789C18.824 13.1719 18.824 13.6469 18.531 13.9399C18.238 14.2329 17.763 14.2329 17.47 13.9399L13 9.47097V21.25C13 21.664 12.664 22 12.25 22C11.836 22 11.5 21.664 11.5 21.25V9.47097L7.03094 13.9399ZM19.018 4.29997L18.218 3.49997H6.283L5.483 4.29997V6.24997C5.483 6.66397 5.147 6.99997 4.733 6.99997C4.319 6.99997 3.983 6.66397 3.983 6.24997V4.49997C3.983 3.11897 5.102 1.99997 6.483 1.99997H18.018C19.399 1.99997 20.518 3.11897 20.518 4.49997V6.24997C20.518 6.66397 20.182 6.99997 19.768 6.99997C19.354 6.99997 19.018 6.66397 19.018 6.24997V4.29997Z"/>
</svg>
